<?xml version="1.0" encoding="UTF-8"?>
<!DOCTYPE svg PUBLIC "-//W3C//DTD SVG 1.1//EN" "http://www.w3.org/Graphics/SVG/1.1/DTD/svg11.dtd">
<!-- Creator: CorelDRAW X6 -->
<svg xmlns="http://www.w3.org/2000/svg" xml:space="preserve" width="505px" height="594px" version="1.1" style="shape-rendering:geometricPrecision; text-rendering:geometricPrecision; image-rendering:optimizeQuality; fill-rule:evenodd; clip-rule:evenodd"
viewBox="0 0 562 660"
 xmlns:xlink="http://www.w3.org/1999/xlink">
 <defs>
  <style type="text/css">
   <![CDATA[
    .fil0 {fill:#46A5F2}
   ]]>
  </style>
 </defs>
 <g id="Layer_x0020_1">
  <metadata id="CorelCorpID_0Corel-Layer"/>
  <path class="fil0" d="M404 0l-4 0 -106 0 -227 0c-36,0 -67,23 -67,59 0,141 0,385 0,526l562 0 0 -258 0 -2 0 -5 0 -1 0 -5 0 0 0 -6 0 0 0 -5 0 -1 0 -5 0 -1 0 -5 0 0 0 -5 0 0 0 -5 0 -1 0 -4 0 -1 0 -3 0 -2 0 -2 0 -4 0 -1 0 -4 0 -1 0 -4 0 -2 0 -2 0 -4 0 0 0 -4 0 -2 0 -2 0 -4 0 -1 0 -3 0 -3 0 0 0 -3 0 -3 0 -163c0,-36 -31,-59 -67,-59l-91 0zm98 327l-441 0 0 -210c0,-17 10,-42 48,-42l194 0 77 0 73 0c39,0 48,26 48,42l0 210zm-7 274l0 18c0,22 -18,41 -41,41l-19 0c-22,0 -41,-18 -41,-41l0 -18 101 0zm-327 0l0 18c0,22 -18,41 -41,41l-19 0c-22,0 -41,-18 -41,-41l0 -18 101 0zm-50 -198l0 0c28,0 50,23 50,50l0 0c0,28 -23,50 -50,50l0 0c-28,0 -50,-23 -50,-50l0 0c0,-28 23,-50 50,-50zm327 0l0 0c28,0 50,23 50,50l0 0c0,28 -23,50 -50,50l0 0c-28,0 -50,-23 -50,-50l0 0c0,-28 23,-50 50,-50z"/>
 </g>
</svg>
