<?xml version="1.0" encoding="UTF-8"?>
<!DOCTYPE svg PUBLIC "-//W3C//DTD SVG 1.1//EN" "http://www.w3.org/Graphics/SVG/1.1/DTD/svg11.dtd">
<!-- Creator: CorelDRAW X6 -->
<svg xmlns="http://www.w3.org/2000/svg" xml:space="preserve" width="864px" height="864px" version="1.1" style="shape-rendering:geometricPrecision; text-rendering:geometricPrecision; image-rendering:optimizeQuality; fill-rule:evenodd; clip-rule:evenodd"
viewBox="0 0 5676 5676"
 xmlns:xlink="http://www.w3.org/1999/xlink">
 <defs>
  <style type="text/css">
   <![CDATA[
    .str0 {stroke:blue;stroke-width:420.328}
    .fil1 {fill:blue}
    .fil0 {fill:white}
   ]]>
  </style>
 </defs>
 <g id="Layer_x0020_1">
  <metadata id="CorelCorpID_0Corel-Layer"/>
  <rect class="fil0 str0" x="210" y="210" width="5256" height="5256" rx="1085" ry="1085"/>
  <path class="fil1" d="M1839 3896l1997 0c223,0 406,-182 406,-406l0 -1705c0,-446 -365,-811 -811,-811l-1186 0c-446,0 -811,365 -811,811l0 1705c0,223 182,406 406,406zm1767 217l97 0c112,0 203,91 203,203l0 184c0,112 -91,203 -203,203l-97 0c-112,0 -203,-91 -203,-203l0 -184c0,-112 91,-203 203,-203zm-1634 0l97 0c112,0 203,91 203,203l0 184c0,112 -91,203 -203,203l-97 0c-112,0 -203,-91 -203,-203l0 -184c0,-112 91,-203 203,-203zm-34 -1505l1799 0c112,0 203,-91 203,-203l0 -448c0,-335 -274,-608 -608,-608l-988 0c-335,0 -608,274 -608,608l0 448c0,112 91,203 203,203zm82 381l0 0c138,0 251,113 251,251l0 88c0,138 -113,251 -251,251l0 0c-138,0 -251,-113 -251,-251l0 -88c0,-138 113,-251 251,-251zm1634 0l0 0c138,0 251,113 251,251l0 88c0,138 -113,251 -251,251l0 0c-138,0 -251,-113 -251,-251l0 -88c0,-138 113,-251 251,-251z"/>
 </g>
</svg>
