<?xml version="1.0" encoding="UTF-8"?>
<!DOCTYPE svg PUBLIC "-//W3C//DTD SVG 1.1//EN" "http://www.w3.org/Graphics/SVG/1.1/DTD/svg11.dtd">
<!-- Creator: CorelDRAW X6 -->
<svg xmlns="http://www.w3.org/2000/svg" xml:space="preserve" width="800px" height="800px" version="1.1" style="shape-rendering:geometricPrecision; text-rendering:geometricPrecision; image-rendering:optimizeQuality; fill-rule:evenodd; clip-rule:evenodd"
viewBox="0 0 4395 4395"
 xmlns:xlink="http://www.w3.org/1999/xlink">
 <defs>
  <style type="text/css">
   <![CDATA[
    .str0 {stroke:white;stroke-width:325.445}
    .fil0 {fill:blue}
    .fil1 {fill:white}
   ]]>
  </style>
 </defs>
 <g id="Layer_x0020_1">
  <metadata id="CorelCorpID_0Corel-Layer"/>
  <rect class="fil0 str0" x="163" y="163" width="4069" height="4069" rx="840" ry="840"/>
  <path class="fil1" d="M1374 3070l1647 0c184,0 334,-150 334,-334l0 -1406c0,-368 -301,-669 -669,-669l-978 0c-368,0 -669,301 -669,669l0 1406c0,184 150,334 334,334zm1457 179l80 0c92,0 167,75 167,167l0 152c0,92 -75,167 -167,167l-80 0c-92,0 -167,-75 -167,-167l0 -152c0,-92 75,-167 167,-167zm-1347 0l80 0c92,0 167,75 167,167l0 152c0,92 -75,167 -167,167l-80 0c-92,0 -167,-75 -167,-167l0 -152c0,-92 75,-167 167,-167zm-28 -1241l1483 0c92,0 167,-75 167,-167l0 -370c0,-276 -226,-502 -502,-502l-814 0c-276,0 -502,226 -502,502l0 370c0,92 75,167 167,167zm68 314l0 0c114,0 207,93 207,207l0 72c0,114 -93,207 -207,207l0 0c-114,0 -207,-93 -207,-207l0 -72c0,-114 93,-207 207,-207zm1347 0l0 0c114,0 207,93 207,207l0 72c0,114 -93,207 -207,207l0 0c-114,0 -207,-93 -207,-207l0 -72c0,-114 93,-207 207,-207z"/>
 </g>
</svg>
